<svg width="859" height="41" viewBox="0 0 859 41" fill="none" xmlns="http://www.w3.org/2000/svg">
<path d="M9.78455 15H8.26697V6.60547H8.21229L5.84705 8.15039V6.71484L8.30799 5.10156H9.78455V15ZM14.4877 15.0957C14.3145 15.0957 14.1504 15.0524 13.9955 14.9658C13.8451 14.8792 13.7266 14.7607 13.64 14.6104C13.5534 14.46 13.5124 14.2982 13.517 14.125C13.5124 13.9518 13.5534 13.79 13.64 13.6396C13.7266 13.4893 13.8451 13.3708 13.9955 13.2842C14.1504 13.1976 14.3145 13.1543 14.4877 13.1543C14.6563 13.1543 14.8158 13.1976 14.9662 13.2842C15.1166 13.3708 15.2351 13.4893 15.3217 13.6396C15.4128 13.79 15.4584 13.9518 15.4584 14.125C15.4584 14.2982 15.4128 14.46 15.3217 14.6104C15.2351 14.7607 15.1166 14.8792 14.9662 14.9658C14.8158 15.0524 14.6563 15.0957 14.4877 15.0957ZM31.582 16.1621H30.2832V3.91211H31.582V16.1621ZM21.5195 12.8262C22.9915 12.8171 24.1126 12.8011 24.8828 12.7783V11.5547C24.4043 11.4954 23.9873 11.3656 23.6318 11.165C23.2764 10.9645 23.0029 10.707 22.8115 10.3926C22.6201 10.0781 22.5267 9.72266 22.5312 9.32617C22.5267 8.87044 22.6475 8.4694 22.8936 8.12305C23.1396 7.77669 23.4883 7.50781 23.9395 7.31641C24.3906 7.125 24.9102 7.0293 25.498 7.0293C26.0905 7.0293 26.6146 7.125 27.0703 7.31641C27.5306 7.50781 27.8861 7.77669 28.1367 8.12305C28.3919 8.4694 28.5195 8.87044 28.5195 9.32617C28.5195 9.7181 28.4215 10.0713 28.2256 10.3857C28.0342 10.6956 27.7607 10.9508 27.4053 11.1514C27.0544 11.3519 26.6419 11.484 26.168 11.5479V12.7305C27.3711 12.6803 28.4922 12.5892 29.5312 12.457L29.627 13.4277C28.4193 13.6283 27.1751 13.7581 25.8945 13.8174C24.6139 13.8766 23.2148 13.9062 21.6973 13.9062L21.5195 12.8262ZM29.2578 6.41406H21.7793V5.375H24.8828V3.93945H26.1816V5.375H29.2578V6.41406ZM25.498 8.04102C25.1562 8.04102 24.8532 8.0957 24.5889 8.20508C24.3245 8.3099 24.1195 8.46029 23.9736 8.65625C23.8278 8.84766 23.7572 9.07096 23.7617 9.32617C23.7572 9.58138 23.8278 9.80469 23.9736 9.99609C24.1195 10.1829 24.3245 10.3288 24.5889 10.4336C24.8532 10.5339 25.1562 10.584 25.498 10.584C25.849 10.584 26.1589 10.5339 26.4277 10.4336C26.6966 10.3288 26.904 10.1829 27.0498 9.99609C27.2002 9.80469 27.2754 9.58138 27.2754 9.32617C27.2754 9.07096 27.2002 8.84766 27.0498 8.65625C26.8994 8.46029 26.6898 8.3099 26.4209 8.20508C26.152 8.0957 25.8444 8.04102 25.498 8.04102ZM37.8027 7.0293C37.7982 7.74935 37.9258 8.46029 38.1855 9.16211C38.4453 9.85938 38.8076 10.486 39.2725 11.042C39.7419 11.5934 40.2773 12.015 40.8789 12.3066L40.0723 13.3457C39.416 13.0039 38.835 12.5094 38.3291 11.8623C37.8278 11.2152 37.4404 10.4769 37.167 9.64746C36.889 10.5316 36.488 11.32 35.9639 12.0127C35.4443 12.7008 34.8405 13.2227 34.1523 13.5781L33.3457 12.5254C33.9609 12.2292 34.5078 11.7917 34.9863 11.2129C35.4694 10.6341 35.8431 9.97786 36.1074 9.24414C36.3717 8.51042 36.5039 7.77214 36.5039 7.0293V4.9375H37.8027V7.0293ZM43.0938 8.79297H45.0625V9.90039H43.0938V16.1621H41.7949V3.91211H43.0938V8.79297ZM55.8633 11.1992H54.5645V8.0957H52.2812V7.0293H54.5645V3.91211H55.8633V11.1992ZM51.7617 11.541C52.6139 11.541 53.3499 11.6322 53.9697 11.8145C54.5941 11.9967 55.0726 12.2611 55.4053 12.6074C55.738 12.9538 55.9043 13.3685 55.9043 13.8516C55.9043 14.3346 55.738 14.7471 55.4053 15.0889C55.0726 15.4352 54.5964 15.6995 53.9766 15.8818C53.3568 16.0641 52.6185 16.1576 51.7617 16.1621C50.9049 16.1576 50.1644 16.0641 49.54 15.8818C48.9202 15.6995 48.444 15.4352 48.1113 15.0889C47.7786 14.7471 47.6146 14.3346 47.6191 13.8516C47.6146 13.3685 47.7786 12.9538 48.1113 12.6074C48.444 12.2611 48.9202 11.9967 49.54 11.8145C50.1644 11.6322 50.9049 11.541 51.7617 11.541ZM51.7617 12.5527C50.8594 12.5527 50.1576 12.6667 49.6562 12.8945C49.1549 13.1178 48.9043 13.4368 48.9043 13.8516C48.9043 14.125 49.0182 14.3597 49.2461 14.5557C49.474 14.7471 49.8021 14.8929 50.2305 14.9932C50.6589 15.0934 51.1693 15.1413 51.7617 15.1367C52.3542 15.1413 52.8646 15.0934 53.293 14.9932C53.7214 14.8929 54.0495 14.7471 54.2773 14.5557C54.5052 14.3597 54.6191 14.125 54.6191 13.8516C54.6191 13.4368 54.3685 13.1178 53.8672 12.8945C53.3659 12.6667 52.6641 12.5527 51.7617 12.5527ZM50.0391 6.07227C50.0391 6.5918 50.1576 7.09538 50.3945 7.58301C50.6315 8.07064 50.9733 8.50586 51.4199 8.88867C51.8665 9.26693 52.3906 9.55859 52.9922 9.76367L52.3223 10.7891C51.6478 10.5521 51.0599 10.2035 50.5586 9.74316C50.0618 9.27832 49.6768 8.73828 49.4033 8.12305C49.1344 8.82031 48.7357 9.43099 48.207 9.95508C47.6784 10.4746 47.054 10.8665 46.334 11.1309L45.6504 10.0918C46.2702 9.8776 46.8102 9.56543 47.2705 9.15527C47.7354 8.74056 48.0908 8.2666 48.3369 7.7334C48.5876 7.2002 48.7129 6.65104 48.7129 6.08594V5.8125H46.0605V4.75977H52.6641V5.8125H50.0391V6.07227ZM68.9609 14.6445H57.75V13.5645H62.6855V11.0488H59.0352V4.74609H60.334V6.85156H66.3496V4.74609H67.6348V11.0488H63.9707V13.5645H68.9609V14.6445ZM66.3496 9.99609V7.9043H60.334V9.99609H66.3496ZM83.4258 10.4883H82.127V3.91211H83.4258V10.4883ZM76.6855 12.457H82.1406V11.0762H83.4258V16.0117H75.4141V11.0762H76.6855V12.457ZM82.1406 14.9453V13.4824H76.6855V14.9453H82.1406ZM76.7812 4.47266C77.401 4.47266 77.957 4.59342 78.4492 4.83496C78.946 5.0765 79.3333 5.41374 79.6113 5.84668C79.8939 6.27507 80.0352 6.76497 80.0352 7.31641C80.0352 7.86784 79.8939 8.36003 79.6113 8.79297C79.3333 9.22135 78.946 9.55632 78.4492 9.79785C77.957 10.0348 77.401 10.151 76.7812 10.1465C76.1615 10.151 75.6032 10.0348 75.1064 9.79785C74.6097 9.55632 74.2201 9.22135 73.9375 8.79297C73.6549 8.36003 73.5137 7.86784 73.5137 7.31641C73.5137 6.76497 73.6549 6.27507 73.9375 5.84668C74.2201 5.41374 74.6097 5.0765 75.1064 4.83496C75.6032 4.59342 76.1615 4.47266 76.7812 4.47266ZM76.7812 5.56641C76.3984 5.56185 76.0544 5.63477 75.749 5.78516C75.4482 5.93099 75.2113 6.13835 75.0381 6.40723C74.8695 6.67155 74.7852 6.97461 74.7852 7.31641C74.7852 7.66276 74.8695 7.97038 75.0381 8.23926C75.2113 8.50358 75.4482 8.71094 75.749 8.86133C76.0544 9.00716 76.3984 9.08008 76.7812 9.08008C77.1595 9.08008 77.499 9.00716 77.7998 8.86133C78.1006 8.71094 78.3353 8.50358 78.5039 8.23926C78.6771 7.97038 78.7637 7.66276 78.7637 7.31641C78.7637 6.97461 78.6771 6.67155 78.5039 6.40723C78.3353 6.13835 78.1006 5.93099 77.7998 5.78516C77.499 5.63477 77.1595 5.56185 76.7812 5.56641ZM91.2051 8.21875H87.1582V9.91406H87.5137C88.5163 9.91406 89.3298 9.89355 89.9541 9.85254C90.583 9.81152 91.2096 9.73177 91.834 9.61328L91.957 10.666C91.2461 10.7891 90.5283 10.8711 89.8037 10.9121C89.0791 10.9486 88.0651 10.9668 86.7617 10.9668H85.873V7.23438H89.9062V5.68945H85.8594V4.65039H91.2051V8.21875ZM95.5801 11.459H94.2812V9.29883H91.9844V8.25977H94.2812V6.74219H91.9844V5.70312H94.2812V3.92578H95.5801V11.459ZM95.5801 16.1758H94.2812V13.127H87.2676V12.0742H95.5801V16.1758Z" fill="#399AF9"/>
<path d="M0 33H97.5H199" stroke="#399AF9" stroke-opacity="0.8" stroke-width="15"/>
<path d="M225.027 13.9062L228.458 10.4473C228.873 10.0098 229.19 9.65885 229.409 9.39453C229.627 9.13021 229.794 8.87272 229.908 8.62207C230.026 8.36686 230.085 8.10026 230.085 7.82227C230.085 7.50326 230.006 7.22298 229.846 6.98145C229.687 6.73991 229.468 6.55306 229.19 6.4209C228.912 6.28874 228.6 6.22266 228.253 6.22266C227.893 6.22266 227.577 6.29557 227.303 6.44141C227.03 6.58724 226.818 6.79232 226.667 7.05664C226.522 7.32096 226.449 7.6263 226.449 7.97266H225.027C225.022 7.38021 225.159 6.85612 225.437 6.40039C225.715 5.94466 226.102 5.59147 226.599 5.34082C227.096 5.09017 227.656 4.96484 228.281 4.96484C228.91 4.96484 229.468 5.08789 229.955 5.33398C230.448 5.57552 230.83 5.91048 231.104 6.33887C231.377 6.76725 231.516 7.24805 231.521 7.78125C231.516 8.15951 231.443 8.52409 231.302 8.875C231.161 9.22135 230.919 9.60872 230.578 10.0371C230.236 10.4609 229.753 10.9805 229.128 11.5957L227.119 13.6328V13.7148H231.685V15H225.027V13.9062ZM234.488 15.0957C234.314 15.0957 234.15 15.0524 233.995 14.9658C233.845 14.8792 233.727 14.7607 233.64 14.6104C233.553 14.46 233.512 14.2982 233.517 14.125C233.512 13.9518 233.553 13.79 233.64 13.6396C233.727 13.4893 233.845 13.3708 233.995 13.2842C234.15 13.1976 234.314 13.1543 234.488 13.1543C234.656 13.1543 234.816 13.1976 234.966 13.2842C235.117 13.3708 235.235 13.4893 235.322 13.6396C235.413 13.79 235.458 13.9518 235.458 14.125C235.458 14.2982 235.413 14.46 235.322 14.6104C235.235 14.7607 235.117 14.8792 234.966 14.9658C234.816 15.0524 234.656 15.0957 234.488 15.0957ZM251.404 6.40039V6.55078C251.395 7.56706 251.363 8.46029 251.309 9.23047C251.258 10.0007 251.14 10.8893 250.953 11.8965L249.682 11.7598C249.814 11.0716 249.91 10.4222 249.969 9.81152C250.033 9.19629 250.071 8.64486 250.085 8.15723C250.099 7.66504 250.105 7.07943 250.105 6.40039V6.14062H242.6V5.08789H251.404V6.40039ZM252.621 14.5078H241.451V13.4277H244.09V9.46289H245.389V13.4277H247.152V9.46289H248.424V13.4277H252.621V14.5078ZM264.721 10.8027H261.836V12.2246H263.354V16.1621H262.041V13.25H254.795V12.2246H256.408V10.8027H253.551V9.75H264.721V10.8027ZM259.129 4.18555C260.018 4.18099 260.79 4.27441 261.446 4.46582C262.107 4.65267 262.615 4.92611 262.971 5.28613C263.326 5.6416 263.504 6.06315 263.504 6.55078C263.504 7.03841 263.326 7.46224 262.971 7.82227C262.615 8.17773 262.107 8.45117 261.446 8.64258C260.79 8.82943 260.018 8.92057 259.129 8.91602C258.24 8.92057 257.465 8.82943 256.805 8.64258C256.148 8.45117 255.643 8.17773 255.287 7.82227C254.932 7.46224 254.754 7.03841 254.754 6.55078C254.754 6.06315 254.932 5.6416 255.287 5.28613C255.643 4.92611 256.148 4.65267 256.805 4.46582C257.465 4.27441 258.24 4.18099 259.129 4.18555ZM259.129 5.21094C258.505 5.20638 257.962 5.25651 257.502 5.36133C257.046 5.46615 256.695 5.62109 256.449 5.82617C256.208 6.03125 256.089 6.27279 256.094 6.55078C256.089 6.83333 256.208 7.07715 256.449 7.28223C256.695 7.48275 257.046 7.6377 257.502 7.74707C257.958 7.85189 258.5 7.9043 259.129 7.9043C259.753 7.9043 260.293 7.85189 260.749 7.74707C261.205 7.6377 261.553 7.48275 261.795 7.28223C262.041 7.07715 262.164 6.83333 262.164 6.55078C262.164 6.27279 262.041 6.03125 261.795 5.82617C261.549 5.62109 261.198 5.46615 260.742 5.36133C260.286 5.25651 259.749 5.20638 259.129 5.21094ZM260.564 12.2246V10.8027H257.707V12.2246H260.564ZM269.916 7.52148C269.916 8.16406 270.048 8.81576 270.312 9.47656C270.577 10.1374 270.946 10.7344 271.42 11.2676C271.898 11.8008 272.441 12.2109 273.047 12.498L272.309 13.5098C271.634 13.1816 271.033 12.6963 270.504 12.0537C269.98 11.4111 269.576 10.682 269.294 9.86621C269.011 10.7503 268.594 11.5456 268.043 12.252C267.496 12.9538 266.876 13.4779 266.184 13.8242L265.418 12.7988C266.024 12.5072 266.571 12.0788 267.059 11.5137C267.551 10.9486 267.936 10.3151 268.214 9.61328C268.492 8.9069 268.631 8.20964 268.631 7.52148V6.22266H265.869V5.14258H272.582V6.22266H269.916V7.52148ZM275.193 8.76562H277.162V9.85938H275.193V16.1621H273.895V3.91211H275.193V8.76562ZM288.961 14.6992H277.75V13.6055H280.812V11.4453H279.117V7.54883H286.309V5.83984H279.09V4.77344H287.594V8.60156H280.402V10.3789H287.881V11.4453H286.021V13.6055H288.961V14.6992ZM284.75 13.6055V11.4453H282.07V13.6055H284.75ZM303.754 16.1621H302.51V9.80469H300.992V15.5742H299.775V4.24023H300.992V8.75195H302.51V3.91211H303.754V16.1621ZM298.559 5.4707C298.549 7.2207 298.196 8.77474 297.499 10.1328C296.802 11.4863 295.628 12.6302 293.979 13.5645L293.227 12.6621C294.539 11.9193 295.519 11.0397 296.166 10.0234C296.813 9.0026 297.189 7.84049 297.294 6.53711H293.746V5.4707H298.559ZM316.578 14.6309H305.367V13.5508H308.047V10.3516C307.536 10.069 307.14 9.71126 306.857 9.27832C306.575 8.84538 306.434 8.36003 306.434 7.82227C306.434 7.1888 306.625 6.63053 307.008 6.14746C307.395 5.66439 307.931 5.29069 308.614 5.02637C309.298 4.75749 310.075 4.62305 310.945 4.62305C311.82 4.62305 312.6 4.75749 313.283 5.02637C313.971 5.29069 314.507 5.66439 314.89 6.14746C315.277 6.63053 315.471 7.1888 315.471 7.82227C315.471 8.35547 315.334 8.83626 315.061 9.26465C314.787 9.68848 314.4 10.0417 313.898 10.3242V13.5508H316.578V14.6309ZM310.945 5.66211C310.307 5.66211 309.742 5.75098 309.25 5.92871C308.758 6.10189 308.375 6.35254 308.102 6.68066C307.828 7.00423 307.691 7.38477 307.691 7.82227C307.691 8.25521 307.828 8.63574 308.102 8.96387C308.375 9.29199 308.758 9.5472 309.25 9.72949C309.742 9.90723 310.307 9.99609 310.945 9.99609C311.579 9.99609 312.142 9.90723 312.634 9.72949C313.131 9.5472 313.518 9.29199 313.796 8.96387C314.074 8.63574 314.213 8.25521 314.213 7.82227C314.213 7.38932 314.074 7.00879 313.796 6.68066C313.522 6.35254 313.137 6.10189 312.641 5.92871C312.148 5.75098 311.583 5.66211 310.945 5.66211ZM312.586 13.5508V10.8232C312.089 10.9463 311.542 11.0078 310.945 11.0078C310.371 11.0078 309.833 10.9486 309.332 10.8301V13.5508H312.586Z" fill="#399AF9"/>
<path d="M220 33H317.5H419" stroke="#399AF9" stroke-opacity="0.8" stroke-width="15"/>
<path d="M448.335 15.1367C447.661 15.1367 447.055 15.0228 446.517 14.7949C445.984 14.5671 445.562 14.248 445.252 13.8379C444.947 13.4232 444.785 12.9492 444.767 12.416H446.298C446.316 12.7031 446.414 12.9538 446.592 13.168C446.774 13.3822 447.016 13.5485 447.317 13.667C447.618 13.7809 447.953 13.8379 448.322 13.8379C448.714 13.8379 449.067 13.7695 449.381 13.6328C449.696 13.4961 449.942 13.307 450.12 13.0654C450.297 12.8193 450.386 12.5391 450.386 12.2246C450.386 11.901 450.297 11.6117 450.12 11.3564C449.942 11.1012 449.684 10.903 449.347 10.7617C449.014 10.6159 448.618 10.543 448.158 10.543H447.31V9.3125H448.158C448.527 9.3125 448.857 9.24642 449.149 9.11426C449.44 8.9821 449.666 8.79753 449.826 8.56055C449.99 8.32357 450.072 8.05013 450.072 7.74023C450.072 7.43945 450.001 7.17513 449.86 6.94727C449.718 6.7194 449.518 6.54167 449.258 6.41406C448.998 6.28646 448.695 6.22266 448.349 6.22266C448.012 6.22266 447.7 6.2819 447.412 6.40039C447.125 6.51888 446.893 6.6875 446.715 6.90625C446.542 7.125 446.449 7.38021 446.435 7.67188H444.986C444.999 7.14779 445.157 6.68066 445.457 6.27051C445.763 5.85579 446.171 5.53451 446.681 5.30664C447.191 5.07878 447.752 4.96484 448.363 4.96484C448.992 4.96484 449.545 5.08561 450.024 5.32715C450.507 5.56868 450.878 5.89681 451.138 6.31152C451.398 6.72168 451.525 7.17057 451.521 7.6582C451.525 8.21419 451.368 8.68815 451.049 9.08008C450.735 9.46745 450.309 9.72721 449.771 9.85938V9.92773C450.441 10.0234 450.963 10.2809 451.336 10.7002C451.715 11.1195 451.904 11.6458 451.904 12.2793C451.904 12.8216 451.749 13.3115 451.439 13.749C451.129 14.182 450.703 14.5215 450.161 14.7676C449.618 15.0137 449.01 15.1367 448.335 15.1367ZM454.488 15.0957C454.314 15.0957 454.15 15.0524 453.995 14.9658C453.845 14.8792 453.727 14.7607 453.64 14.6104C453.553 14.46 453.512 14.2982 453.517 14.125C453.512 13.9518 453.553 13.79 453.64 13.6396C453.727 13.4893 453.845 13.3708 453.995 13.2842C454.15 13.1976 454.314 13.1543 454.488 13.1543C454.656 13.1543 454.816 13.1976 454.966 13.2842C455.117 13.3708 455.235 13.4893 455.322 13.6396C455.413 13.79 455.458 13.9518 455.458 14.125C455.458 14.2982 455.413 14.46 455.322 14.6104C455.235 14.7607 455.117 14.8792 454.966 14.9658C454.816 15.0524 454.656 15.0957 454.488 15.0957ZM465.184 7.26172C465.184 7.92708 465.277 8.58561 465.464 9.2373C465.651 9.88444 465.929 10.4769 466.298 11.0146C466.667 11.5524 467.116 11.9831 467.645 12.3066L466.92 13.3047C466.364 12.972 465.888 12.5186 465.491 11.9443C465.095 11.3656 464.789 10.7093 464.575 9.97559C464.343 10.7731 464.015 11.4863 463.591 12.1152C463.172 12.7396 462.673 13.2272 462.094 13.5781L461.287 12.6074C461.848 12.2702 462.326 11.8236 462.723 11.2676C463.119 10.707 463.418 10.0872 463.618 9.4082C463.823 8.72461 463.926 8.02734 463.926 7.31641V5.0332H465.184V7.26172ZM471.992 16.1621H470.748V3.91211H471.992V16.1621ZM469.449 15.5605H468.219V9.29883H466.318V8.21875H468.219V4.14453H469.449V15.5605ZM484.748 12.1426H479.744V16.1621H478.473V12.1426H473.537V11.1172H484.748V12.1426ZM476.217 6.00391H482.041V4.4043H483.34V9.72266H474.932V4.4043H476.217V6.00391ZM482.041 8.68359V7.04297H476.217V8.68359H482.041ZM489.902 7.0293C489.898 7.74935 490.025 8.46029 490.285 9.16211C490.545 9.85938 490.907 10.486 491.372 11.042C491.841 11.5934 492.377 12.015 492.979 12.3066L492.172 13.3457C491.516 13.0039 490.935 12.5094 490.429 11.8623C489.927 11.2152 489.54 10.4769 489.267 9.64746C488.989 10.5316 488.588 11.32 488.063 12.0127C487.544 12.7008 486.94 13.2227 486.252 13.5781L485.445 12.5254C486.061 12.2292 486.607 11.7917 487.086 11.2129C487.569 10.6341 487.943 9.97786 488.207 9.24414C488.471 8.51042 488.604 7.77214 488.604 7.0293V4.9375H489.902V7.0293ZM495.193 8.79297H497.162V9.90039H495.193V16.1621H493.895V3.91211H495.193V8.79297ZM507.375 7.23438H509.152V8.32812H507.375V11.7734H506.076V3.91211H507.375V7.23438ZM503.465 11.8691C504.294 11.8691 505.012 11.9557 505.618 12.1289C506.229 12.2975 506.696 12.5436 507.02 12.8672C507.348 13.1862 507.512 13.569 507.512 14.0156C507.512 14.4531 507.348 14.8314 507.02 15.1504C506.696 15.474 506.229 15.7201 505.618 15.8887C505.012 16.0573 504.294 16.1393 503.465 16.1348C502.626 16.1393 501.902 16.0573 501.291 15.8887C500.68 15.7201 500.211 15.474 499.883 15.1504C499.559 14.8314 499.4 14.4531 499.404 14.0156C499.4 13.569 499.559 13.1862 499.883 12.8672C500.206 12.5436 500.674 12.2975 501.284 12.1289C501.899 11.9557 502.626 11.8691 503.465 11.8691ZM503.465 12.8672C502.576 12.8672 501.89 12.9652 501.407 13.1611C500.924 13.3571 500.685 13.6419 500.689 14.0156C500.68 14.3711 500.92 14.6491 501.407 14.8496C501.899 15.0501 502.585 15.1504 503.465 15.1504C504.331 15.1504 505.007 15.0501 505.495 14.8496C505.983 14.6491 506.227 14.3711 506.227 14.0156C506.227 13.6419 505.985 13.3571 505.502 13.1611C505.019 12.9652 504.34 12.8672 503.465 12.8672ZM505.064 6.25H497.764V5.22461H500.771V3.81641H502.07V5.22461H505.064V6.25ZM501.414 6.81055C501.997 6.81055 502.512 6.90169 502.959 7.08398C503.41 7.26628 503.759 7.52376 504.005 7.85645C504.256 8.18457 504.381 8.5651 504.381 8.99805C504.381 9.43099 504.256 9.81152 504.005 10.1396C503.759 10.4678 503.41 10.7207 502.959 10.8984C502.512 11.0762 501.997 11.1628 501.414 11.1582C500.822 11.1628 500.3 11.0762 499.849 10.8984C499.402 10.7207 499.053 10.4678 498.803 10.1396C498.557 9.81152 498.434 9.43099 498.434 8.99805C498.434 8.5651 498.557 8.18457 498.803 7.85645C499.053 7.52376 499.402 7.26628 499.849 7.08398C500.3 6.90169 500.822 6.81055 501.414 6.81055ZM501.414 7.78125C501.068 7.78125 500.762 7.83138 500.498 7.93164C500.238 8.02734 500.038 8.16862 499.896 8.35547C499.755 8.53776 499.687 8.75195 499.691 8.99805C499.687 9.23503 499.755 9.44238 499.896 9.62012C500.038 9.79785 500.238 9.93457 500.498 10.0303C500.762 10.126 501.068 10.1738 501.414 10.1738C501.938 10.1738 502.36 10.069 502.679 9.85938C502.998 9.64518 503.16 9.35807 503.164 8.99805C503.16 8.62435 502.998 8.32812 502.679 8.10938C502.36 7.89062 501.938 7.78125 501.414 7.78125ZM523.426 10.4883H522.127V3.91211H523.426V10.4883ZM516.686 12.457H522.141V11.0762H523.426V16.0117H515.414V11.0762H516.686V12.457ZM522.141 14.9453V13.4824H516.686V14.9453H522.141ZM516.781 4.47266C517.401 4.47266 517.957 4.59342 518.449 4.83496C518.946 5.0765 519.333 5.41374 519.611 5.84668C519.894 6.27507 520.035 6.76497 520.035 7.31641C520.035 7.86784 519.894 8.36003 519.611 8.79297C519.333 9.22135 518.946 9.55632 518.449 9.79785C517.957 10.0348 517.401 10.151 516.781 10.1465C516.161 10.151 515.603 10.0348 515.106 9.79785C514.61 9.55632 514.22 9.22135 513.938 8.79297C513.655 8.36003 513.514 7.86784 513.514 7.31641C513.514 6.76497 513.655 6.27507 513.938 5.84668C514.22 5.41374 514.61 5.0765 515.106 4.83496C515.603 4.59342 516.161 4.47266 516.781 4.47266ZM516.781 5.56641C516.398 5.56185 516.054 5.63477 515.749 5.78516C515.448 5.93099 515.211 6.13835 515.038 6.40723C514.869 6.67155 514.785 6.97461 514.785 7.31641C514.785 7.66276 514.869 7.97038 515.038 8.23926C515.211 8.50358 515.448 8.71094 515.749 8.86133C516.054 9.00716 516.398 9.08008 516.781 9.08008C517.16 9.08008 517.499 9.00716 517.8 8.86133C518.101 8.71094 518.335 8.50358 518.504 8.23926C518.677 7.97038 518.764 7.66276 518.764 7.31641C518.764 6.97461 518.677 6.67155 518.504 6.40723C518.335 6.13835 518.101 5.93099 517.8 5.78516C517.499 5.63477 517.16 5.56185 516.781 5.56641ZM531.205 8.21875H527.158V9.91406H527.514C528.516 9.91406 529.33 9.89355 529.954 9.85254C530.583 9.81152 531.21 9.73177 531.834 9.61328L531.957 10.666C531.246 10.7891 530.528 10.8711 529.804 10.9121C529.079 10.9486 528.065 10.9668 526.762 10.9668H525.873V7.23438H529.906V5.68945H525.859V4.65039H531.205V8.21875ZM535.58 11.459H534.281V9.29883H531.984V8.25977H534.281V6.74219H531.984V5.70312H534.281V3.92578H535.58V11.459ZM535.58 16.1758H534.281V13.127H527.268V12.0742H535.58V16.1758Z" fill="#399AF9"/>
<path d="M440 33H537.5H639" stroke="#399AF9" stroke-opacity="0.8" stroke-width="15"/>
<path d="M664.494 11.8555L668.869 5.10156H670.728V11.8008H672.081V13.0723H670.728V15H669.306V13.0723H664.494V11.8555ZM669.306 11.8008V6.89258H669.197L666.079 11.7188V11.8008H669.306ZM674.488 15.0957C674.314 15.0957 674.15 15.0524 673.995 14.9658C673.845 14.8792 673.727 14.7607 673.64 14.6104C673.553 14.46 673.512 14.2982 673.517 14.125C673.512 13.9518 673.553 13.79 673.64 13.6396C673.727 13.4893 673.845 13.3708 673.995 13.2842C674.15 13.1976 674.314 13.1543 674.488 13.1543C674.656 13.1543 674.816 13.1976 674.966 13.2842C675.117 13.3708 675.235 13.4893 675.322 13.6396C675.413 13.79 675.458 13.9518 675.458 14.125C675.458 14.2982 675.413 14.46 675.322 14.6104C675.235 14.7607 675.117 14.8792 674.966 14.9658C674.816 15.0524 674.656 15.0957 674.488 15.0957ZM691.404 6.40039V6.55078C691.395 7.56706 691.363 8.46029 691.309 9.23047C691.258 10.0007 691.14 10.8893 690.953 11.8965L689.682 11.7598C689.814 11.0716 689.91 10.4222 689.969 9.81152C690.033 9.19629 690.071 8.64486 690.085 8.15723C690.099 7.66504 690.105 7.07943 690.105 6.40039V6.14062H682.6V5.08789H691.404V6.40039ZM692.621 14.5078H681.451V13.4277H684.09V9.46289H685.389V13.4277H687.152V9.46289H688.424V13.4277H692.621V14.5078ZM704.133 16.1621H702.889V9.87305H701.426V15.5605H700.195V4.14453H701.426V8.7793H702.889V3.91211H704.133V16.1621ZM697.27 7.15234C697.27 7.89974 697.365 8.60612 697.557 9.27148C697.748 9.93685 698.037 10.5293 698.425 11.0488C698.817 11.5638 699.302 11.9694 699.881 12.2656L699.115 13.2637C698.527 12.9447 698.028 12.5117 697.618 11.9648C697.208 11.418 696.891 10.7822 696.668 10.0576C696.454 10.8779 696.139 11.598 695.725 12.2178C695.314 12.8376 694.804 13.3275 694.193 13.6875L693.387 12.7031C694.257 12.2109 694.911 11.4772 695.349 10.502C695.791 9.52669 696.012 8.41016 696.012 7.15234V6.35938H693.715V5.30664H699.402V6.35938H697.27V7.15234ZM712.787 4.45898C713.38 4.45898 713.906 4.56152 714.366 4.7666C714.831 4.97168 715.193 5.25879 715.453 5.62793C715.713 5.99707 715.845 6.42318 715.85 6.90625C715.845 7.31641 715.743 7.68783 715.542 8.02051C715.346 8.35319 715.068 8.62891 714.708 8.84766C714.353 9.06641 713.94 9.21224 713.471 9.28516V10.3721C714.674 10.3037 715.736 10.2012 716.656 10.0645L716.752 11.0215C715.608 11.2266 714.412 11.3633 713.163 11.4316C711.919 11.4954 710.595 11.5273 709.191 11.5273L709.055 10.4746H709.67C710.449 10.4746 711.283 10.4609 712.172 10.4336V9.29883C711.684 9.23047 711.256 9.08691 710.887 8.86816C710.518 8.64941 710.233 8.37142 710.032 8.03418C709.832 7.69694 709.734 7.32096 709.738 6.90625C709.734 6.42773 709.859 6.00391 710.114 5.63477C710.374 5.26107 710.736 4.97168 711.201 4.7666C711.666 4.56152 712.195 4.45898 712.787 4.45898ZM712.787 5.45703C712.427 5.45703 712.108 5.51628 711.83 5.63477C711.552 5.75326 711.336 5.92188 711.181 6.14062C711.026 6.35938 710.951 6.61458 710.955 6.90625C710.951 7.1888 711.026 7.43945 711.181 7.6582C711.336 7.8724 711.552 8.04102 711.83 8.16406C712.113 8.28255 712.432 8.3418 712.787 8.3418C713.147 8.3418 713.466 8.28255 713.744 8.16406C714.022 8.04557 714.236 7.87695 714.387 7.6582C714.542 7.43945 714.619 7.1888 714.619 6.90625C714.619 6.61458 714.542 6.35938 714.387 6.14062C714.236 5.92188 714.022 5.75326 713.744 5.63477C713.471 5.51628 713.152 5.45703 712.787 5.45703ZM718.707 7.97266H720.457V9.06641H718.707V13.291H717.408V3.92578H718.707V7.97266ZM719.145 15.9023H710.791V12.4707H712.09V14.8359H719.145V15.9023ZM725.516 5.74414C725.516 6.31836 725.634 6.86296 725.871 7.37793C726.108 7.88835 726.45 8.33724 726.896 8.72461C727.343 9.11198 727.872 9.40365 728.482 9.59961L727.771 10.6113C727.106 10.3698 726.527 10.0234 726.035 9.57227C725.548 9.11654 725.169 8.57878 724.9 7.95898C724.632 8.66536 724.233 9.2806 723.704 9.80469C723.18 10.3242 722.553 10.7161 721.824 10.9805L721.127 9.94141C721.77 9.72266 722.323 9.40592 722.788 8.99121C723.253 8.5765 723.608 8.0957 723.854 7.54883C724.101 6.9974 724.226 6.41406 724.23 5.79883V4.5957H725.516V5.74414ZM731.381 11.1445H730.082V7.4668H727.498V6.40039H730.082V3.91211H731.381V11.1445ZM727.279 11.4863C728.136 11.4863 728.874 11.5775 729.494 11.7598C730.114 11.9421 730.59 12.2087 730.923 12.5596C731.256 12.9105 731.422 13.332 731.422 13.8242C731.422 14.3118 731.256 14.7288 730.923 15.0752C730.59 15.4261 730.112 15.6904 729.487 15.8682C728.868 16.0505 728.132 16.1393 727.279 16.1348C726.423 16.1393 725.682 16.0505 725.058 15.8682C724.438 15.6904 723.962 15.4261 723.629 15.0752C723.296 14.7288 723.132 14.3118 723.137 13.8242C723.132 13.332 723.296 12.9105 723.629 12.5596C723.962 12.2087 724.438 11.9421 725.058 11.7598C725.682 11.5775 726.423 11.4863 727.279 11.4863ZM727.279 12.498C726.382 12.498 725.68 12.6143 725.174 12.8467C724.673 13.0745 724.422 13.4004 724.422 13.8242C724.422 14.2344 724.673 14.5511 725.174 14.7744C725.68 14.9977 726.382 15.1094 727.279 15.1094C728.177 15.1094 728.877 14.9977 729.378 14.7744C729.884 14.5511 730.137 14.2344 730.137 13.8242C730.137 13.4004 729.884 13.0745 729.378 12.8467C728.877 12.6143 728.177 12.498 727.279 12.498Z" fill="#399AF9"/>
<path d="M660 33H757.5H859" stroke="#399AF9" stroke-opacity="0.8" stroke-width="15"/>
</svg>
